<mxfile host="Electron" modified="2024-07-04T14:10:24.791Z" agent="Mozilla/5.0 (Windows NT 10.0; Win64; x64) AppleWebKit/537.36 (KHTML, like Gecko) draw.io/24.6.4 Chrome/124.0.6367.207 Electron/30.0.6 Safari/537.36" etag="_YrwRnOUmxhYnzVHqUdy" version="24.6.4" type="device" pages="3">
  <diagram name="Page-1" id="bhbfgpit3lowmcE8QvX_">
    <mxGraphModel dx="1036" dy="606" grid="1" gridSize="10" guides="1" tooltips="1" connect="1" arrows="1" fold="1" page="1" pageScale="1" pageWidth="850" pageHeight="1100" math="0" shadow="0">
      <root>
        <mxCell id="0" />
        <mxCell id="1" parent="0" />
        <mxCell id="yiTXcHkYaBX103gatUNw-1" value="&lt;span class=&quot;hljs-keyword&quot; style=&quot;box-sizing: border-box; color: rgb(166, 38, 164); font-family: SFMono-Regular, Menlo, Monaco, Consolas, &amp;quot;Liberation Mono&amp;quot;, &amp;quot;Courier New&amp;quot;, monospace; font-size: 12.6px; font-style: normal; font-variant-ligatures: normal; font-variant-caps: normal; font-weight: 400; letter-spacing: normal; orphans: 2; text-align: left; text-indent: 0px; text-transform: none; widows: 2; word-spacing: 0px; -webkit-text-stroke-width: 0px; white-space: pre; text-decoration-thickness: initial; text-decoration-style: initial; text-decoration-color: initial;&quot;&gt;Begin&lt;/span&gt;&lt;br style=&quot;box-sizing: border-box; color: rgb(56, 58, 66); font-family: SFMono-Regular, Menlo, Monaco, Consolas, &amp;quot;Liberation Mono&amp;quot;, &amp;quot;Courier New&amp;quot;, monospace; font-size: 12.6px; font-style: normal; font-variant-ligatures: normal; font-variant-caps: normal; font-weight: 400; letter-spacing: normal; orphans: 2; text-align: left; text-indent: 0px; text-transform: none; widows: 2; word-spacing: 0px; -webkit-text-stroke-width: 0px; white-space: pre; text-decoration-thickness: initial; text-decoration-style: initial; text-decoration-color: initial;&quot;&gt;&lt;span style=&quot;color: rgb(56, 58, 66); font-family: SFMono-Regular, Menlo, Monaco, Consolas, &amp;quot;Liberation Mono&amp;quot;, &amp;quot;Courier New&amp;quot;, monospace; font-size: 12.6px; font-style: normal; font-variant-ligatures: normal; font-variant-caps: normal; font-weight: 400; letter-spacing: normal; orphans: 2; text-align: left; text-indent: 0px; text-transform: none; widows: 2; word-spacing: 0px; -webkit-text-stroke-width: 0px; white-space: pre; background-color: rgb(250, 250, 250); text-decoration-thickness: initial; text-decoration-style: initial; text-decoration-color: initial; display: inline !important; float: none;&quot;&gt;&amp;nbsp; N là số được sinh số ngẫu nhiên trong khoảng &lt;/span&gt;&lt;span class=&quot;hljs-number&quot; style=&quot;box-sizing: border-box; color: rgb(152, 104, 1); font-family: SFMono-Regular, Menlo, Monaco, Consolas, &amp;quot;Liberation Mono&amp;quot;, &amp;quot;Courier New&amp;quot;, monospace; font-size: 12.6px; font-style: normal; font-variant-ligatures: normal; font-variant-caps: normal; font-weight: 400; letter-spacing: normal; orphans: 2; text-align: left; text-indent: 0px; text-transform: none; widows: 2; word-spacing: 0px; -webkit-text-stroke-width: 0px; white-space: pre; text-decoration-thickness: initial; text-decoration-style: initial; text-decoration-color: initial;&quot;&gt;0&lt;/span&gt;&lt;span class=&quot;hljs-number&quot; style=&quot;box-sizing: border-box; color: rgb(152, 104, 1); font-family: SFMono-Regular, Menlo, Monaco, Consolas, &amp;quot;Liberation Mono&amp;quot;, &amp;quot;Courier New&amp;quot;, monospace; font-size: 12.6px; font-style: normal; font-variant-ligatures: normal; font-variant-caps: normal; font-weight: 400; letter-spacing: normal; orphans: 2; text-align: left; text-indent: 0px; text-transform: none; widows: 2; word-spacing: 0px; -webkit-text-stroke-width: 0px; white-space: pre; text-decoration-thickness: initial; text-decoration-style: initial; text-decoration-color: initial;&quot;&gt;-9&lt;/span&gt;&lt;br style=&quot;box-sizing: border-box; color: rgb(56, 58, 66); font-family: SFMono-Regular, Menlo, Monaco, Consolas, &amp;quot;Liberation Mono&amp;quot;, &amp;quot;Courier New&amp;quot;, monospace; font-size: 12.6px; font-style: normal; font-variant-ligatures: normal; font-variant-caps: normal; font-weight: 400; letter-spacing: normal; orphans: 2; text-align: left; text-indent: 0px; text-transform: none; widows: 2; word-spacing: 0px; -webkit-text-stroke-width: 0px; white-space: pre; text-decoration-thickness: initial; text-decoration-style: initial; text-decoration-color: initial;&quot;&gt;&lt;span style=&quot;color: rgb(56, 58, 66); font-family: SFMono-Regular, Menlo, Monaco, Consolas, &amp;quot;Liberation Mono&amp;quot;, &amp;quot;Courier New&amp;quot;, monospace; font-size: 12.6px; font-style: normal; font-variant-ligatures: normal; font-variant-caps: normal; font-weight: 400; letter-spacing: normal; orphans: 2; text-align: left; text-indent: 0px; text-transform: none; widows: 2; word-spacing: 0px; -webkit-text-stroke-width: 0px; white-space: pre; background-color: rgb(250, 250, 250); text-decoration-thickness: initial; text-decoration-style: initial; text-decoration-color: initial; display: inline !important; float: none;&quot;&gt;&amp;nbsp; Nhập vào M&lt;/span&gt;&lt;br style=&quot;box-sizing: border-box; color: rgb(56, 58, 66); font-family: SFMono-Regular, Menlo, Monaco, Consolas, &amp;quot;Liberation Mono&amp;quot;, &amp;quot;Courier New&amp;quot;, monospace; font-size: 12.6px; font-style: normal; font-variant-ligatures: normal; font-variant-caps: normal; font-weight: 400; letter-spacing: normal; orphans: 2; text-align: left; text-indent: 0px; text-transform: none; widows: 2; word-spacing: 0px; -webkit-text-stroke-width: 0px; white-space: pre; text-decoration-thickness: initial; text-decoration-style: initial; text-decoration-color: initial;&quot;&gt;&lt;span style=&quot;color: rgb(56, 58, 66); font-family: SFMono-Regular, Menlo, Monaco, Consolas, &amp;quot;Liberation Mono&amp;quot;, &amp;quot;Courier New&amp;quot;, monospace; font-size: 12.6px; font-style: normal; font-variant-ligatures: normal; font-variant-caps: normal; font-weight: 400; letter-spacing: normal; orphans: 2; text-align: left; text-indent: 0px; text-transform: none; widows: 2; word-spacing: 0px; -webkit-text-stroke-width: 0px; white-space: pre; background-color: rgb(250, 250, 250); text-decoration-thickness: initial; text-decoration-style: initial; text-decoration-color: initial; display: inline !important; float: none;&quot;&gt;&amp;nbsp; IF (N==M)&lt;/span&gt;&lt;br style=&quot;box-sizing: border-box; color: rgb(56, 58, 66); font-family: SFMono-Regular, Menlo, Monaco, Consolas, &amp;quot;Liberation Mono&amp;quot;, &amp;quot;Courier New&amp;quot;, monospace; font-size: 12.6px; font-style: normal; font-variant-ligatures: normal; font-variant-caps: normal; font-weight: 400; letter-spacing: normal; orphans: 2; text-align: left; text-indent: 0px; text-transform: none; widows: 2; word-spacing: 0px; -webkit-text-stroke-width: 0px; white-space: pre; text-decoration-thickness: initial; text-decoration-style: initial; text-decoration-color: initial;&quot;&gt;&lt;span style=&quot;color: rgb(56, 58, 66); font-family: SFMono-Regular, Menlo, Monaco, Consolas, &amp;quot;Liberation Mono&amp;quot;, &amp;quot;Courier New&amp;quot;, monospace; font-size: 12.6px; font-style: normal; font-variant-ligatures: normal; font-variant-caps: normal; font-weight: 400; letter-spacing: normal; orphans: 2; text-align: left; text-indent: 0px; text-transform: none; widows: 2; word-spacing: 0px; -webkit-text-stroke-width: 0px; white-space: pre; background-color: rgb(250, 250, 250); text-decoration-thickness: initial; text-decoration-style: initial; text-decoration-color: initial; display: inline !important; float: none;&quot;&gt;&amp;nbsp;&amp;nbsp;&amp;nbsp; &lt;/span&gt;&lt;span class=&quot;hljs-keyword&quot; style=&quot;box-sizing: border-box; color: rgb(166, 38, 164); font-family: SFMono-Regular, Menlo, Monaco, Consolas, &amp;quot;Liberation Mono&amp;quot;, &amp;quot;Courier New&amp;quot;, monospace; font-size: 12.6px; font-style: normal; font-variant-ligatures: normal; font-variant-caps: normal; font-weight: 400; letter-spacing: normal; orphans: 2; text-align: left; text-indent: 0px; text-transform: none; widows: 2; word-spacing: 0px; -webkit-text-stroke-width: 0px; white-space: pre; text-decoration-thickness: initial; text-decoration-style: initial; text-decoration-color: initial;&quot;&gt;Display&lt;/span&gt;&lt;span style=&quot;color: rgb(56, 58, 66); font-family: SFMono-Regular, Menlo, Monaco, Consolas, &amp;quot;Liberation Mono&amp;quot;, &amp;quot;Courier New&amp;quot;, monospace; font-size: 12.6px; font-style: normal; font-variant-ligatures: normal; font-variant-caps: normal; font-weight: 400; letter-spacing: normal; orphans: 2; text-align: left; text-indent: 0px; text-transform: none; widows: 2; word-spacing: 0px; -webkit-text-stroke-width: 0px; white-space: pre; background-color: rgb(250, 250, 250); text-decoration-thickness: initial; text-decoration-style: initial; text-decoration-color: initial; display: inline !important; float: none;&quot;&gt; &lt;/span&gt;&lt;span class=&quot;hljs-string&quot; style=&quot;box-sizing: border-box; color: rgb(80, 161, 79); font-family: SFMono-Regular, Menlo, Monaco, Consolas, &amp;quot;Liberation Mono&amp;quot;, &amp;quot;Courier New&amp;quot;, monospace; font-size: 12.6px; font-style: normal; font-variant-ligatures: normal; font-variant-caps: normal; font-weight: 400; letter-spacing: normal; orphans: 2; text-align: left; text-indent: 0px; text-transform: none; widows: 2; word-spacing: 0px; -webkit-text-stroke-width: 0px; white-space: pre; text-decoration-thickness: initial; text-decoration-style: initial; text-decoration-color: initial;&quot;&gt;&quot;Dự đoán đúng&quot;&lt;/span&gt;&lt;span style=&quot;color: rgb(56, 58, 66); font-family: SFMono-Regular, Menlo, Monaco, Consolas, &amp;quot;Liberation Mono&amp;quot;, &amp;quot;Courier New&amp;quot;, monospace; font-size: 12.6px; font-style: normal; font-variant-ligatures: normal; font-variant-caps: normal; font-weight: 400; letter-spacing: normal; orphans: 2; text-align: left; text-indent: 0px; text-transform: none; widows: 2; word-spacing: 0px; -webkit-text-stroke-width: 0px; white-space: pre; background-color: rgb(250, 250, 250); text-decoration-thickness: initial; text-decoration-style: initial; text-decoration-color: initial; display: inline !important; float: none;&quot;&gt;&amp;nbsp;&amp;nbsp;&amp;nbsp;&amp;nbsp;&amp;nbsp;&amp;nbsp;&amp;nbsp; &amp;nbsp;&lt;/span&gt;&lt;br style=&quot;box-sizing: border-box; color: rgb(56, 58, 66); font-family: SFMono-Regular, Menlo, Monaco, Consolas, &amp;quot;Liberation Mono&amp;quot;, &amp;quot;Courier New&amp;quot;, monospace; font-size: 12.6px; font-style: normal; font-variant-ligatures: normal; font-variant-caps: normal; font-weight: 400; letter-spacing: normal; orphans: 2; text-align: left; text-indent: 0px; text-transform: none; widows: 2; word-spacing: 0px; -webkit-text-stroke-width: 0px; white-space: pre; text-decoration-thickness: initial; text-decoration-style: initial; text-decoration-color: initial;&quot;&gt;&lt;span style=&quot;color: rgb(56, 58, 66); font-family: SFMono-Regular, Menlo, Monaco, Consolas, &amp;quot;Liberation Mono&amp;quot;, &amp;quot;Courier New&amp;quot;, monospace; font-size: 12.6px; font-style: normal; font-variant-ligatures: normal; font-variant-caps: normal; font-weight: 400; letter-spacing: normal; orphans: 2; text-align: left; text-indent: 0px; text-transform: none; widows: 2; word-spacing: 0px; -webkit-text-stroke-width: 0px; white-space: pre; background-color: rgb(250, 250, 250); text-decoration-thickness: initial; text-decoration-style: initial; text-decoration-color: initial; display: inline !important; float: none;&quot;&gt;&amp;nbsp; ELSE&amp;nbsp;&amp;nbsp;&amp;nbsp;&amp;nbsp;&amp;nbsp;&amp;nbsp;&amp;nbsp;&amp;nbsp;&amp;nbsp;&amp;nbsp;&amp;nbsp; &amp;nbsp;&lt;/span&gt;&lt;br style=&quot;box-sizing: border-box; color: rgb(56, 58, 66); font-family: SFMono-Regular, Menlo, Monaco, Consolas, &amp;quot;Liberation Mono&amp;quot;, &amp;quot;Courier New&amp;quot;, monospace; font-size: 12.6px; font-style: normal; font-variant-ligatures: normal; font-variant-caps: normal; font-weight: 400; letter-spacing: normal; orphans: 2; text-align: left; text-indent: 0px; text-transform: none; widows: 2; word-spacing: 0px; -webkit-text-stroke-width: 0px; white-space: pre; text-decoration-thickness: initial; text-decoration-style: initial; text-decoration-color: initial;&quot;&gt;&lt;span style=&quot;color: rgb(56, 58, 66); font-family: SFMono-Regular, Menlo, Monaco, Consolas, &amp;quot;Liberation Mono&amp;quot;, &amp;quot;Courier New&amp;quot;, monospace; font-size: 12.6px; font-style: normal; font-variant-ligatures: normal; font-variant-caps: normal; font-weight: 400; letter-spacing: normal; orphans: 2; text-align: left; text-indent: 0px; text-transform: none; widows: 2; word-spacing: 0px; -webkit-text-stroke-width: 0px; white-space: pre; background-color: rgb(250, 250, 250); text-decoration-thickness: initial; text-decoration-style: initial; text-decoration-color: initial; display: inline !important; float: none;&quot;&gt;&amp;nbsp;&amp;nbsp;&amp;nbsp; &lt;/span&gt;&lt;span class=&quot;hljs-keyword&quot; style=&quot;box-sizing: border-box; color: rgb(166, 38, 164); font-family: SFMono-Regular, Menlo, Monaco, Consolas, &amp;quot;Liberation Mono&amp;quot;, &amp;quot;Courier New&amp;quot;, monospace; font-size: 12.6px; font-style: normal; font-variant-ligatures: normal; font-variant-caps: normal; font-weight: 400; letter-spacing: normal; orphans: 2; text-align: left; text-indent: 0px; text-transform: none; widows: 2; word-spacing: 0px; -webkit-text-stroke-width: 0px; white-space: pre; text-decoration-thickness: initial; text-decoration-style: initial; text-decoration-color: initial;&quot;&gt;Display&lt;/span&gt;&lt;span style=&quot;color: rgb(56, 58, 66); font-family: SFMono-Regular, Menlo, Monaco, Consolas, &amp;quot;Liberation Mono&amp;quot;, &amp;quot;Courier New&amp;quot;, monospace; font-size: 12.6px; font-style: normal; font-variant-ligatures: normal; font-variant-caps: normal; font-weight: 400; letter-spacing: normal; orphans: 2; text-align: left; text-indent: 0px; text-transform: none; widows: 2; word-spacing: 0px; -webkit-text-stroke-width: 0px; white-space: pre; background-color: rgb(250, 250, 250); text-decoration-thickness: initial; text-decoration-style: initial; text-decoration-color: initial; display: inline !important; float: none;&quot;&gt; &lt;/span&gt;&lt;span class=&quot;hljs-string&quot; style=&quot;box-sizing: border-box; color: rgb(80, 161, 79); font-family: SFMono-Regular, Menlo, Monaco, Consolas, &amp;quot;Liberation Mono&amp;quot;, &amp;quot;Courier New&amp;quot;, monospace; font-size: 12.6px; font-style: normal; font-variant-ligatures: normal; font-variant-caps: normal; font-weight: 400; letter-spacing: normal; orphans: 2; text-align: left; text-indent: 0px; text-transform: none; widows: 2; word-spacing: 0px; -webkit-text-stroke-width: 0px; white-space: pre; text-decoration-thickness: initial; text-decoration-style: initial; text-decoration-color: initial;&quot;&gt;&quot;Dự đoán sai&quot;&lt;/span&gt;&lt;span style=&quot;color: rgb(56, 58, 66); font-family: SFMono-Regular, Menlo, Monaco, Consolas, &amp;quot;Liberation Mono&amp;quot;, &amp;quot;Courier New&amp;quot;, monospace; font-size: 12.6px; font-style: normal; font-variant-ligatures: normal; font-variant-caps: normal; font-weight: 400; letter-spacing: normal; orphans: 2; text-align: left; text-indent: 0px; text-transform: none; widows: 2; word-spacing: 0px; -webkit-text-stroke-width: 0px; white-space: pre; background-color: rgb(250, 250, 250); text-decoration-thickness: initial; text-decoration-style: initial; text-decoration-color: initial; display: inline !important; float: none;&quot;&gt; &lt;/span&gt;&lt;br style=&quot;box-sizing: border-box; color: rgb(56, 58, 66); font-family: SFMono-Regular, Menlo, Monaco, Consolas, &amp;quot;Liberation Mono&amp;quot;, &amp;quot;Courier New&amp;quot;, monospace; font-size: 12.6px; font-style: normal; font-variant-ligatures: normal; font-variant-caps: normal; font-weight: 400; letter-spacing: normal; orphans: 2; text-align: left; text-indent: 0px; text-transform: none; widows: 2; word-spacing: 0px; -webkit-text-stroke-width: 0px; white-space: pre; text-decoration-thickness: initial; text-decoration-style: initial; text-decoration-color: initial;&quot;&gt;&lt;span class=&quot;hljs-keyword&quot; style=&quot;box-sizing: border-box; color: rgb(166, 38, 164); font-family: SFMono-Regular, Menlo, Monaco, Consolas, &amp;quot;Liberation Mono&amp;quot;, &amp;quot;Courier New&amp;quot;, monospace; font-size: 12.6px; font-style: normal; font-variant-ligatures: normal; font-variant-caps: normal; font-weight: 400; letter-spacing: normal; orphans: 2; text-align: left; text-indent: 0px; text-transform: none; widows: 2; word-spacing: 0px; -webkit-text-stroke-width: 0px; white-space: pre; text-decoration-thickness: initial; text-decoration-style: initial; text-decoration-color: initial;&quot;&gt;End&lt;/span&gt;" style="text;whiteSpace=wrap;html=1;" vertex="1" parent="1">
          <mxGeometry x="20" y="130" width="350" height="120" as="geometry" />
        </mxCell>
        <mxCell id="yiTXcHkYaBX103gatUNw-6" style="edgeStyle=orthogonalEdgeStyle;rounded=0;orthogonalLoop=1;jettySize=auto;html=1;" edge="1" parent="1" source="yiTXcHkYaBX103gatUNw-2" target="yiTXcHkYaBX103gatUNw-3">
          <mxGeometry relative="1" as="geometry" />
        </mxCell>
        <mxCell id="yiTXcHkYaBX103gatUNw-2" value="begin&lt;div&gt;&lt;br&gt;&lt;/div&gt;" style="ellipse;whiteSpace=wrap;html=1;" vertex="1" parent="1">
          <mxGeometry x="510" y="110" width="90" height="60" as="geometry" />
        </mxCell>
        <mxCell id="yiTXcHkYaBX103gatUNw-7" style="edgeStyle=orthogonalEdgeStyle;rounded=0;orthogonalLoop=1;jettySize=auto;html=1;" edge="1" parent="1" source="yiTXcHkYaBX103gatUNw-3" target="yiTXcHkYaBX103gatUNw-4">
          <mxGeometry relative="1" as="geometry" />
        </mxCell>
        <mxCell id="yiTXcHkYaBX103gatUNw-3" value="N là số ngẫu nhiên từ 0 đến 9" style="shape=parallelogram;perimeter=parallelogramPerimeter;whiteSpace=wrap;html=1;fixedSize=1;" vertex="1" parent="1">
          <mxGeometry x="450" y="200" width="230" height="40" as="geometry" />
        </mxCell>
        <mxCell id="yiTXcHkYaBX103gatUNw-9" style="edgeStyle=orthogonalEdgeStyle;rounded=0;orthogonalLoop=1;jettySize=auto;html=1;" edge="1" parent="1" source="yiTXcHkYaBX103gatUNw-4" target="yiTXcHkYaBX103gatUNw-8">
          <mxGeometry relative="1" as="geometry" />
        </mxCell>
        <mxCell id="yiTXcHkYaBX103gatUNw-4" value="input M" style="shape=parallelogram;perimeter=parallelogramPerimeter;whiteSpace=wrap;html=1;fixedSize=1;" vertex="1" parent="1">
          <mxGeometry x="430" y="270" width="250" height="40" as="geometry" />
        </mxCell>
        <mxCell id="yiTXcHkYaBX103gatUNw-10" style="edgeStyle=orthogonalEdgeStyle;rounded=0;orthogonalLoop=1;jettySize=auto;html=1;" edge="1" parent="1" source="yiTXcHkYaBX103gatUNw-8">
          <mxGeometry relative="1" as="geometry">
            <mxPoint x="390" y="440" as="targetPoint" />
          </mxGeometry>
        </mxCell>
        <mxCell id="yiTXcHkYaBX103gatUNw-13" style="edgeStyle=orthogonalEdgeStyle;rounded=0;orthogonalLoop=1;jettySize=auto;html=1;" edge="1" parent="1" source="yiTXcHkYaBX103gatUNw-8">
          <mxGeometry relative="1" as="geometry">
            <mxPoint x="720" y="430" as="targetPoint" />
          </mxGeometry>
        </mxCell>
        <mxCell id="yiTXcHkYaBX103gatUNw-8" value="N==M" style="rhombus;whiteSpace=wrap;html=1;" vertex="1" parent="1">
          <mxGeometry x="510" y="340" width="85" height="60" as="geometry" />
        </mxCell>
        <mxCell id="yiTXcHkYaBX103gatUNw-16" style="edgeStyle=orthogonalEdgeStyle;rounded=0;orthogonalLoop=1;jettySize=auto;html=1;" edge="1" parent="1" source="yiTXcHkYaBX103gatUNw-11" target="yiTXcHkYaBX103gatUNw-15">
          <mxGeometry relative="1" as="geometry">
            <mxPoint x="380" y="540" as="targetPoint" />
            <Array as="points">
              <mxPoint x="380" y="520" />
            </Array>
          </mxGeometry>
        </mxCell>
        <mxCell id="yiTXcHkYaBX103gatUNw-11" value="output đúng" style="shape=parallelogram;perimeter=parallelogramPerimeter;whiteSpace=wrap;html=1;fixedSize=1;" vertex="1" parent="1">
          <mxGeometry x="320" y="440" width="120" height="40" as="geometry" />
        </mxCell>
        <mxCell id="yiTXcHkYaBX103gatUNw-17" style="edgeStyle=orthogonalEdgeStyle;rounded=0;orthogonalLoop=1;jettySize=auto;html=1;entryX=1;entryY=0.5;entryDx=0;entryDy=0;" edge="1" parent="1" source="yiTXcHkYaBX103gatUNw-12" target="yiTXcHkYaBX103gatUNw-15">
          <mxGeometry relative="1" as="geometry">
            <Array as="points">
              <mxPoint x="700" y="530" />
            </Array>
          </mxGeometry>
        </mxCell>
        <mxCell id="yiTXcHkYaBX103gatUNw-12" value="output sai" style="shape=parallelogram;perimeter=parallelogramPerimeter;whiteSpace=wrap;html=1;fixedSize=1;" vertex="1" parent="1">
          <mxGeometry x="640" y="440" width="120" height="40" as="geometry" />
        </mxCell>
        <mxCell id="yiTXcHkYaBX103gatUNw-15" value="end" style="ellipse;whiteSpace=wrap;html=1;" vertex="1" parent="1">
          <mxGeometry x="480" y="490" width="120" height="80" as="geometry" />
        </mxCell>
        <mxCell id="yiTXcHkYaBX103gatUNw-18" value="true" style="text;html=1;align=center;verticalAlign=middle;resizable=0;points=[];autosize=1;strokeColor=none;fillColor=none;" vertex="1" parent="1">
          <mxGeometry x="450" y="338" width="40" height="30" as="geometry" />
        </mxCell>
        <mxCell id="yiTXcHkYaBX103gatUNw-19" value="sai" style="text;html=1;align=center;verticalAlign=middle;resizable=0;points=[];autosize=1;strokeColor=none;fillColor=none;" vertex="1" parent="1">
          <mxGeometry x="620" y="338" width="40" height="30" as="geometry" />
        </mxCell>
      </root>
    </mxGraphModel>
  </diagram>
  <diagram id="GyvNtL29dbaTqg2r1fX8" name="Page-2">
    <mxGraphModel dx="1036" dy="606" grid="1" gridSize="10" guides="1" tooltips="1" connect="1" arrows="1" fold="1" page="1" pageScale="1" pageWidth="850" pageHeight="1100" math="0" shadow="0">
      <root>
        <mxCell id="0" />
        <mxCell id="1" parent="0" />
        <mxCell id="lme1MYv5iVQYJhb0wVyr-4" value="begin" style="ellipse;whiteSpace=wrap;html=1;" vertex="1" parent="1">
          <mxGeometry x="510" y="70" width="120" height="50" as="geometry" />
        </mxCell>
        <mxCell id="lme1MYv5iVQYJhb0wVyr-10" style="edgeStyle=orthogonalEdgeStyle;rounded=0;orthogonalLoop=1;jettySize=auto;html=1;" edge="1" parent="1" source="lme1MYv5iVQYJhb0wVyr-5">
          <mxGeometry relative="1" as="geometry">
            <mxPoint x="575" y="220" as="targetPoint" />
          </mxGeometry>
        </mxCell>
        <mxCell id="lme1MYv5iVQYJhb0wVyr-5" value="math , physics , chemistry&amp;nbsp;&lt;div&gt;R = average&lt;/div&gt;" style="shape=parallelogram;perimeter=parallelogramPerimeter;whiteSpace=wrap;html=1;fixedSize=1;" vertex="1" parent="1">
          <mxGeometry x="460" y="150" width="230" height="40" as="geometry" />
        </mxCell>
        <mxCell id="lme1MYv5iVQYJhb0wVyr-9" style="edgeStyle=orthogonalEdgeStyle;rounded=0;orthogonalLoop=1;jettySize=auto;html=1;entryX=0.478;entryY=0.25;entryDx=0;entryDy=0;entryPerimeter=0;" edge="1" parent="1" source="lme1MYv5iVQYJhb0wVyr-4" target="lme1MYv5iVQYJhb0wVyr-5">
          <mxGeometry relative="1" as="geometry" />
        </mxCell>
        <mxCell id="lme1MYv5iVQYJhb0wVyr-17" style="edgeStyle=orthogonalEdgeStyle;rounded=0;orthogonalLoop=1;jettySize=auto;html=1;entryX=0.5;entryY=0;entryDx=0;entryDy=0;" edge="1" parent="1" source="lme1MYv5iVQYJhb0wVyr-14" target="lme1MYv5iVQYJhb0wVyr-15">
          <mxGeometry relative="1" as="geometry" />
        </mxCell>
        <mxCell id="lme1MYv5iVQYJhb0wVyr-14" value="R = (math + physics + chemistry) / 3" style="rounded=0;whiteSpace=wrap;html=1;" vertex="1" parent="1">
          <mxGeometry x="497.5" y="225" width="155" height="60" as="geometry" />
        </mxCell>
        <mxCell id="lme1MYv5iVQYJhb0wVyr-18" style="edgeStyle=orthogonalEdgeStyle;rounded=0;orthogonalLoop=1;jettySize=auto;html=1;" edge="1" parent="1" source="lme1MYv5iVQYJhb0wVyr-15" target="lme1MYv5iVQYJhb0wVyr-16">
          <mxGeometry relative="1" as="geometry" />
        </mxCell>
        <mxCell id="lme1MYv5iVQYJhb0wVyr-15" value="output R" style="shape=parallelogram;perimeter=parallelogramPerimeter;whiteSpace=wrap;html=1;fixedSize=1;size=10;" vertex="1" parent="1">
          <mxGeometry x="476.25" y="320" width="187.5" height="40" as="geometry" />
        </mxCell>
        <mxCell id="lme1MYv5iVQYJhb0wVyr-16" value="end" style="ellipse;whiteSpace=wrap;html=1;" vertex="1" parent="1">
          <mxGeometry x="510" y="390" width="120" height="50" as="geometry" />
        </mxCell>
        <mxCell id="lme1MYv5iVQYJhb0wVyr-20" value="&lt;p class=&quot;MsoNormal&quot;&gt;Begin &lt;/p&gt;&#xa;&#xa;&lt;p class=&quot;MsoNormal&quot;&gt;Input &lt;span style=&quot;mso-spacerun:yes&quot;&gt;&amp;nbsp;&lt;/span&gt;math, physics ,&#xa;chemistry , R = average&lt;/p&gt;&#xa;&#xa;&lt;p class=&quot;MsoNormal&quot;&gt;&lt;span style=&quot;mso-spacerun:yes&quot;&gt;&amp;nbsp;&amp;nbsp;&amp;nbsp;&amp;nbsp;&amp;nbsp; &lt;/span&gt;R = (a+b+c)/3&lt;/p&gt;&#xa;&#xa;&lt;p class=&quot;MsoNormal&quot;&gt;Output R&lt;/p&gt;&#xa;&#xa;&lt;p class=&quot;MsoNormal&quot;&gt;End&lt;/p&gt;&#xa;&#xa;&lt;p class=&quot;MsoNormal&quot;&gt;&amp;nbsp;&lt;/p&gt;" style="text;whiteSpace=wrap;html=1;" vertex="1" parent="1">
          <mxGeometry x="50" y="40" width="160" height="410" as="geometry" />
        </mxCell>
      </root>
    </mxGraphModel>
  </diagram>
  <diagram id="u-iZ9A9UIvrqMXlQp1tI" name="Page-3">
    <mxGraphModel dx="1036" dy="606" grid="1" gridSize="10" guides="1" tooltips="1" connect="1" arrows="1" fold="1" page="1" pageScale="1" pageWidth="850" pageHeight="1100" math="0" shadow="0">
      <root>
        <mxCell id="0" />
        <mxCell id="1" parent="0" />
        <mxCell id="Y6Bzm8AtuTuKka6iInX6-2" value="&lt;p class=&quot;MsoNormal&quot;&gt;begin&lt;/p&gt;&#xa;&#xa;&lt;p class=&quot;MsoNormal&quot;&gt;input a,b,c &lt;/p&gt;&#xa;&#xa;&lt;p class=&quot;MsoNormal&quot;&gt;&lt;span style=&quot;mso-spacerun:yes&quot;&gt;&amp;nbsp;&amp;nbsp;&amp;nbsp;&amp;nbsp;&amp;nbsp;&amp;nbsp; &lt;/span&gt;max = a&lt;/p&gt;&#xa;&#xa;&lt;p class=&quot;MsoNormal&quot;&gt;if b &amp;gt; max , max = b &lt;/p&gt;&#xa;&#xa;&lt;p class=&quot;MsoNormal&quot;&gt;if c &amp;gt; max , max = C &lt;/p&gt;&#xa;&#xa;&lt;p class=&quot;MsoNormal&quot;&gt;display max &lt;/p&gt;&#xa;&#xa;&lt;p class=&quot;MsoNormal&quot;&gt;end &lt;/p&gt;" style="text;whiteSpace=wrap;html=1;" vertex="1" parent="1">
          <mxGeometry x="20" y="60" width="190" height="450" as="geometry" />
        </mxCell>
        <mxCell id="Y6Bzm8AtuTuKka6iInX6-3" value="begin&#39;" style="ellipse;whiteSpace=wrap;html=1;" vertex="1" parent="1">
          <mxGeometry x="460" y="70" width="120" height="50" as="geometry" />
        </mxCell>
        <mxCell id="Y6Bzm8AtuTuKka6iInX6-22" style="edgeStyle=orthogonalEdgeStyle;rounded=0;orthogonalLoop=1;jettySize=auto;html=1;entryX=0.5;entryY=0;entryDx=0;entryDy=0;" edge="1" parent="1" source="Y6Bzm8AtuTuKka6iInX6-4" target="Y6Bzm8AtuTuKka6iInX6-9">
          <mxGeometry relative="1" as="geometry" />
        </mxCell>
        <mxCell id="Y6Bzm8AtuTuKka6iInX6-4" value="input a,b,c&amp;nbsp;" style="shape=parallelogram;perimeter=parallelogramPerimeter;whiteSpace=wrap;html=1;fixedSize=1;" vertex="1" parent="1">
          <mxGeometry x="410" y="160" width="200" height="40" as="geometry" />
        </mxCell>
        <mxCell id="Y6Bzm8AtuTuKka6iInX6-10" style="edgeStyle=orthogonalEdgeStyle;rounded=0;orthogonalLoop=1;jettySize=auto;html=1;" edge="1" parent="1" source="Y6Bzm8AtuTuKka6iInX6-6">
          <mxGeometry relative="1" as="geometry">
            <mxPoint x="510" y="390" as="targetPoint" />
          </mxGeometry>
        </mxCell>
        <mxCell id="Y6Bzm8AtuTuKka6iInX6-6" value="b&amp;gt;max" style="rhombus;whiteSpace=wrap;html=1;" vertex="1" parent="1">
          <mxGeometry x="470" y="300" width="80" height="60" as="geometry" />
        </mxCell>
        <mxCell id="Y6Bzm8AtuTuKka6iInX6-24" style="edgeStyle=orthogonalEdgeStyle;rounded=0;orthogonalLoop=1;jettySize=auto;html=1;" edge="1" parent="1" source="Y6Bzm8AtuTuKka6iInX6-8">
          <mxGeometry relative="1" as="geometry">
            <mxPoint x="790" y="420" as="targetPoint" />
            <Array as="points">
              <mxPoint x="770" y="320" />
              <mxPoint x="770" y="321" />
            </Array>
          </mxGeometry>
        </mxCell>
        <mxCell id="Y6Bzm8AtuTuKka6iInX6-8" value="max = b" style="shape=parallelogram;perimeter=parallelogramPerimeter;whiteSpace=wrap;html=1;fixedSize=1;" vertex="1" parent="1">
          <mxGeometry x="630" y="290" width="120" height="60" as="geometry" />
        </mxCell>
        <mxCell id="Y6Bzm8AtuTuKka6iInX6-23" style="edgeStyle=orthogonalEdgeStyle;rounded=0;orthogonalLoop=1;jettySize=auto;html=1;entryX=0.5;entryY=0;entryDx=0;entryDy=0;" edge="1" parent="1" source="Y6Bzm8AtuTuKka6iInX6-9" target="Y6Bzm8AtuTuKka6iInX6-6">
          <mxGeometry relative="1" as="geometry" />
        </mxCell>
        <mxCell id="Y6Bzm8AtuTuKka6iInX6-9" value="max = a" style="rounded=0;whiteSpace=wrap;html=1;" vertex="1" parent="1">
          <mxGeometry x="450" y="230" width="120" height="40" as="geometry" />
        </mxCell>
        <mxCell id="Y6Bzm8AtuTuKka6iInX6-12" style="edgeStyle=orthogonalEdgeStyle;rounded=0;orthogonalLoop=1;jettySize=auto;html=1;" edge="1" parent="1" source="Y6Bzm8AtuTuKka6iInX6-11">
          <mxGeometry relative="1" as="geometry">
            <mxPoint x="640" y="420" as="targetPoint" />
          </mxGeometry>
        </mxCell>
        <mxCell id="Y6Bzm8AtuTuKka6iInX6-14" style="edgeStyle=orthogonalEdgeStyle;rounded=0;orthogonalLoop=1;jettySize=auto;html=1;" edge="1" parent="1" source="Y6Bzm8AtuTuKka6iInX6-11">
          <mxGeometry relative="1" as="geometry">
            <mxPoint x="510" y="490" as="targetPoint" />
          </mxGeometry>
        </mxCell>
        <mxCell id="Y6Bzm8AtuTuKka6iInX6-11" value="c &amp;gt; max&amp;nbsp;" style="rhombus;whiteSpace=wrap;html=1;" vertex="1" parent="1">
          <mxGeometry x="470" y="390" width="80" height="60" as="geometry" />
        </mxCell>
        <mxCell id="Y6Bzm8AtuTuKka6iInX6-25" style="edgeStyle=orthogonalEdgeStyle;rounded=0;orthogonalLoop=1;jettySize=auto;html=1;" edge="1" parent="1" source="Y6Bzm8AtuTuKka6iInX6-13">
          <mxGeometry relative="1" as="geometry">
            <mxPoint x="790" y="510" as="targetPoint" />
          </mxGeometry>
        </mxCell>
        <mxCell id="Y6Bzm8AtuTuKka6iInX6-13" value="max = c" style="shape=parallelogram;perimeter=parallelogramPerimeter;whiteSpace=wrap;html=1;fixedSize=1;" vertex="1" parent="1">
          <mxGeometry x="630" y="390" width="120" height="60" as="geometry" />
        </mxCell>
        <mxCell id="Y6Bzm8AtuTuKka6iInX6-17" style="edgeStyle=orthogonalEdgeStyle;rounded=0;orthogonalLoop=1;jettySize=auto;html=1;" edge="1" parent="1" source="Y6Bzm8AtuTuKka6iInX6-16">
          <mxGeometry relative="1" as="geometry">
            <mxPoint x="660" y="520" as="targetPoint" />
          </mxGeometry>
        </mxCell>
        <mxCell id="Y6Bzm8AtuTuKka6iInX6-16" value="display max&amp;nbsp;" style="shape=parallelogram;perimeter=parallelogramPerimeter;whiteSpace=wrap;html=1;fixedSize=1;" vertex="1" parent="1">
          <mxGeometry x="450" y="490" width="120" height="60" as="geometry" />
        </mxCell>
        <mxCell id="Y6Bzm8AtuTuKka6iInX6-18" value="end" style="ellipse;whiteSpace=wrap;html=1;" vertex="1" parent="1">
          <mxGeometry x="660" y="490" width="140" height="60" as="geometry" />
        </mxCell>
        <mxCell id="Y6Bzm8AtuTuKka6iInX6-21" style="edgeStyle=orthogonalEdgeStyle;rounded=0;orthogonalLoop=1;jettySize=auto;html=1;entryX=0.554;entryY=-0.005;entryDx=0;entryDy=0;entryPerimeter=0;" edge="1" parent="1" source="Y6Bzm8AtuTuKka6iInX6-3" target="Y6Bzm8AtuTuKka6iInX6-4">
          <mxGeometry relative="1" as="geometry" />
        </mxCell>
        <mxCell id="Y6Bzm8AtuTuKka6iInX6-27" style="edgeStyle=orthogonalEdgeStyle;rounded=0;orthogonalLoop=1;jettySize=auto;html=1;entryX=0.167;entryY=0.5;entryDx=0;entryDy=0;entryPerimeter=0;" edge="1" parent="1" source="Y6Bzm8AtuTuKka6iInX6-6" target="Y6Bzm8AtuTuKka6iInX6-8">
          <mxGeometry relative="1" as="geometry" />
        </mxCell>
      </root>
    </mxGraphModel>
  </diagram>
</mxfile>
